<svg width="49" height="48" viewBox="0 0 49 48" fill="none" xmlns="http://www.w3.org/2000/svg">
<path fill-rule="evenodd" clip-rule="evenodd" d="M24.5195 0C11.2647 0 0.519531 10.7452 0.519531 24C0.519531 37.2548 11.2647 48 24.5195 48C37.7744 48 48.5195 37.2548 48.5195 24C48.5195 10.7452 37.7744 0 24.5195 0ZM19.2428 11.2773C20.6082 11.2152 21.0444 11.2 24.5207 11.2H24.5167C27.9941 11.2 28.4288 11.2152 29.7941 11.2773C31.1568 11.3397 32.0875 11.5555 32.9035 11.872C33.7462 12.1987 34.4582 12.636 35.1702 13.348C35.8822 14.0595 36.3195 14.7736 36.6475 15.6155C36.9622 16.4294 37.1782 17.3595 37.2422 18.7222C37.3035 20.0876 37.3195 20.5238 37.3195 24.0001C37.3195 27.4764 37.3035 27.9116 37.2422 29.277C37.1782 30.6391 36.9622 31.5695 36.6475 32.3837C36.3195 33.2253 35.8822 33.9394 35.1702 34.6509C34.459 35.3629 33.7459 35.8013 32.9043 36.1283C32.0899 36.4448 31.1587 36.6605 29.796 36.7229C28.4306 36.7851 27.9957 36.8003 24.5191 36.8003C21.0431 36.8003 20.6071 36.7851 19.2417 36.7229C17.8793 36.6605 16.9489 36.4448 16.1345 36.1283C15.2932 35.8013 14.579 35.3629 13.8678 34.6509C13.1561 33.9394 12.7187 33.2253 12.3915 32.3834C12.0753 31.5695 11.8595 30.6394 11.7969 29.2767C11.735 27.9114 11.7195 27.4764 11.7195 24.0001C11.7195 20.5238 11.7355 20.0873 11.7966 18.7219C11.8579 17.3598 12.0739 16.4294 12.3913 15.6152C12.7193 14.7736 13.1566 14.0595 13.8686 13.348C14.5801 12.6363 15.2942 12.1989 16.1361 11.872C16.95 11.5555 17.8801 11.3397 19.2428 11.2773Z" fill="black"/>
<path fill-rule="evenodd" clip-rule="evenodd" d="M23.3725 13.5066C23.5955 13.5063 23.8353 13.5064 24.0942 13.5065L24.5208 13.5066C27.9384 13.5066 28.3435 13.5189 29.6931 13.5802C30.9411 13.6373 31.6185 13.8458 32.0697 14.021C32.667 14.253 33.0929 14.5304 33.5406 14.9784C33.9886 15.4264 34.266 15.853 34.4985 16.4504C34.6737 16.9011 34.8825 17.5784 34.9393 18.8264C35.0006 20.1758 35.014 20.5811 35.014 23.9971C35.014 27.4132 35.0006 27.8185 34.9393 29.1678C34.8822 30.4159 34.6737 31.0932 34.4985 31.5439C34.2665 32.1412 33.9886 32.5665 33.5406 33.0143C33.0926 33.4623 32.6673 33.7396 32.0697 33.9716C31.619 34.1476 30.9411 34.3556 29.6931 34.4127C28.3438 34.474 27.9384 34.4874 24.5208 34.4874C21.1029 34.4874 20.6978 34.474 19.3485 34.4127C18.1005 34.3551 17.4231 34.1466 16.9716 33.9714C16.3743 33.7394 15.9476 33.462 15.4996 33.014C15.0516 32.566 14.7743 32.1404 14.5417 31.5428C14.3665 31.0921 14.1577 30.4148 14.1009 29.1668C14.0396 27.8174 14.0273 27.4121 14.0273 23.9939C14.0273 20.5758 14.0396 20.1726 14.1009 18.8232C14.158 17.5752 14.3665 16.8979 14.5417 16.4466C14.7738 15.8493 15.0516 15.4226 15.4996 14.9746C15.9476 14.5266 16.3743 14.2493 16.9716 14.0168C17.4228 13.8408 18.1005 13.6328 19.3485 13.5754C20.5293 13.5221 20.9869 13.5061 23.3725 13.5034V13.5066ZM31.3534 15.632C30.5054 15.632 29.8174 16.3192 29.8174 17.1675C29.8174 18.0155 30.5054 18.7035 31.3534 18.7035C32.2014 18.7035 32.8894 18.0155 32.8894 17.1675C32.8894 16.3194 32.2014 15.6314 31.3534 15.6314V15.632ZM17.9474 24.0001C17.9474 20.37 20.8905 17.4268 24.5205 17.4267C28.1507 17.4267 31.0931 20.3699 31.0931 24.0001C31.0931 27.6302 28.151 30.5721 24.5208 30.5721C20.8906 30.5721 17.9474 27.6302 17.9474 24.0001Z" fill="black"/>
<path d="M24.5206 19.7334C26.8769 19.7334 28.7873 21.6436 28.7873 24.0001C28.7873 26.3564 26.8769 28.2668 24.5206 28.2668C22.1641 28.2668 20.2539 26.3564 20.2539 24.0001C20.2539 21.6436 22.1641 19.7334 24.5206 19.7334Z" fill="black"/>
</svg>
