<svg width="48" height="48" viewBox="0 0 48 48" fill="none" xmlns="http://www.w3.org/2000/svg">
<path fill-rule="evenodd" clip-rule="evenodd" d="M23.888 0C10.695 0 0 10.667 0 23.8255C0 36.9839 10.695 47.6509 23.888 47.6509C37.081 47.6509 47.7761 36.9839 47.7761 23.8255C47.7761 10.667 37.081 0 23.888 0ZM18.6359 11.1953C19.9949 11.1336 20.4291 11.1185 23.8892 11.1185H23.8852C27.3464 11.1185 27.779 11.1336 29.138 11.1953C30.4943 11.2573 31.4207 11.4714 32.2329 11.7857C33.0716 12.11 33.7803 12.5441 34.489 13.2509C35.1977 13.9572 35.633 14.6662 35.9594 15.5019C36.2726 16.3099 36.4876 17.2333 36.5513 18.5861C36.6124 19.9415 36.6283 20.3746 36.6283 23.8256C36.6283 27.2766 36.6124 27.7086 36.5513 29.0641C36.4876 30.4163 36.2726 31.34 35.9594 32.1482C35.633 32.9837 35.1977 33.6926 34.489 34.3989C33.7811 35.1057 33.0713 35.541 32.2337 35.8655C31.4231 36.1797 30.4962 36.3939 29.1399 36.4559C27.7809 36.5175 27.348 36.5326 23.8876 36.5326C20.4278 36.5326 19.9938 36.5175 18.6349 36.4559C17.2788 36.3939 16.3527 36.1797 15.5421 35.8655C14.7047 35.541 13.9939 35.1057 13.286 34.3989C12.5776 33.6926 12.1423 32.9837 11.8166 32.1479C11.5018 31.34 11.2871 30.4166 11.2247 29.0638C11.1631 27.7084 11.1477 27.2766 11.1477 23.8256C11.1477 20.3746 11.1637 19.9412 11.2245 18.5858C11.2855 17.2335 11.5005 16.3099 11.8164 15.5017C12.1428 14.6662 12.5781 13.9572 13.2868 13.2509C13.995 12.5444 14.7058 12.1102 15.5437 11.7857C16.3538 11.4714 17.2796 11.2573 18.6359 11.1953Z" fill="white"/>
<path fill-rule="evenodd" clip-rule="evenodd" d="M22.7464 13.4085C22.9683 13.4081 23.207 13.4082 23.4647 13.4083L23.8893 13.4085C27.291 13.4085 27.6942 13.4206 29.0375 13.4815C30.2797 13.5382 30.9539 13.7452 31.403 13.9191C31.9975 14.1494 32.4214 14.4247 32.8671 14.8695C33.313 15.3142 33.589 15.7378 33.8205 16.3308C33.9948 16.7782 34.2027 17.4506 34.2592 18.6895C34.3203 20.0291 34.3335 20.4315 34.3335 23.8227C34.3335 27.2139 34.3203 27.6162 34.2592 28.9558C34.2024 30.1947 33.9948 30.8671 33.8205 31.3145C33.5895 31.9075 33.313 32.3298 32.8671 32.7742C32.4211 33.219 31.9978 33.4943 31.403 33.7246C30.9544 33.8994 30.2797 34.1058 29.0375 34.1625C27.6944 34.2234 27.291 34.2366 23.8893 34.2366C20.4874 34.2366 20.0842 34.2234 18.7411 34.1625C17.4989 34.1053 16.8247 33.8983 16.3754 33.7244C15.7808 33.494 15.3562 33.2187 14.9102 32.774C14.4643 32.3292 14.1883 31.9067 13.9568 31.3135C13.7824 30.8661 13.5746 30.1937 13.5181 28.9547C13.457 27.6152 13.4448 27.2128 13.4448 23.8195C13.4448 20.4262 13.457 20.0259 13.5181 18.6864C13.5749 17.4474 13.7824 16.775 13.9568 16.3271C14.1877 15.7341 14.4643 15.3105 14.9102 14.8658C15.3562 14.421 15.7808 14.1457 16.3754 13.9149C16.8245 13.7402 17.4989 13.5337 18.7411 13.4768C19.9164 13.4238 20.3719 13.4079 22.7464 13.4053V13.4085ZM30.69 15.5183C29.846 15.5183 29.1612 16.2006 29.1612 17.0427C29.1612 17.8845 29.846 18.5675 30.69 18.5675C31.5341 18.5675 32.2189 17.8845 32.2189 17.0427C32.2189 16.2008 31.5341 15.5178 30.69 15.5178V15.5183ZM17.3466 23.8256C17.3466 20.2219 20.2759 17.3001 23.889 17.3C27.5023 17.3 30.431 20.2218 30.431 23.8256C30.431 27.4293 27.5025 30.3498 23.8893 30.3498C20.2761 30.3498 17.3466 27.4293 17.3466 23.8256Z" fill="white"/>
<path d="M23.8894 19.5898C26.2347 19.5898 28.1362 21.4861 28.1362 23.8255C28.1362 26.1647 26.2347 28.0612 23.8894 28.0612C21.5438 28.0612 19.6426 26.1647 19.6426 23.8255C19.6426 21.4861 21.5438 19.5898 23.8894 19.5898Z" fill="white"/>
</svg>
