<svg width="49" height="48" viewBox="0 0 49 48" fill="none" xmlns="http://www.w3.org/2000/svg">
<path fill-rule="evenodd" clip-rule="evenodd" d="M0.519531 24C0.519531 37.2548 11.2647 48 24.5195 48C37.7744 48 48.5195 37.2548 48.5195 24C48.5195 10.7452 37.7744 0 24.5195 0C11.2647 0 0.519531 10.7452 0.519531 24ZM20.1195 35L20.5279 28.8823L20.5275 28.882L31.6565 18.839C32.1449 18.4055 31.5498 18.1941 30.9014 18.5873L17.1668 27.2523L11.2342 25.4007C9.95303 25.0084 9.94383 24.128 11.5219 23.4951L34.6399 14.5809C35.6957 14.1015 36.7148 14.8345 36.3117 16.4505L32.3747 35.0031C32.0998 36.3215 31.3032 36.6368 30.1995 36.0278L24.2022 31.5969L21.3195 34.4C21.3104 34.4088 21.3014 34.4176 21.2924 34.4264C20.97 34.7403 20.7032 35 20.1195 35Z" fill="black"/>
</svg>
