<svg width="49" height="48" viewBox="0 0 49 48" fill="none" xmlns="http://www.w3.org/2000/svg">
<path fill-rule="evenodd" clip-rule="evenodd" d="M24.5195 0C11.2647 0 0.519531 10.7452 0.519531 24C0.519531 37.2548 11.2647 48 24.5195 48C37.7744 48 48.5195 37.2548 48.5195 24C48.5195 10.7452 37.7744 0 24.5195 0ZM26.4737 31.5762C26.237 31.8257 25.775 31.8761 25.775 31.8761H24.2449C24.2449 31.8761 20.8693 32.0752 17.8955 29.037C14.6526 25.7222 11.7891 19.1455 11.7891 19.1455C11.7891 19.1455 11.6238 18.7141 11.8028 18.5064C12.0044 18.2717 12.5541 18.2569 12.5541 18.2569L16.2115 18.2336C16.2115 18.2336 16.5558 18.2889 16.8025 18.4671C17.0066 18.6146 17.1205 18.8887 17.1205 18.8887C17.1205 18.8887 17.7115 20.3562 18.494 21.6835C20.0229 24.2756 20.7341 24.8422 21.2524 24.5644C22.0087 24.1601 21.7821 20.9006 21.7821 20.9006C21.7821 20.9006 21.7958 19.7183 21.4014 19.191C21.0959 18.783 20.5199 18.6637 20.2658 18.6306C20.0592 18.6035 20.3972 18.134 20.8355 17.9239C21.4941 17.608 22.656 17.5896 24.0296 17.6031C25.1001 17.6141 25.4081 17.6793 25.8263 17.7788C26.7969 18.0087 26.7666 18.7455 26.7012 20.3357C26.6817 20.8113 26.659 21.3631 26.659 22.0006C26.659 22.1439 26.6547 22.2966 26.6503 22.4537C26.6276 23.2683 26.6017 24.2012 27.1485 24.5485C27.429 24.7254 28.1139 24.5743 29.828 21.7179C30.6406 20.3635 31.2492 18.7719 31.2492 18.7719C31.2492 18.7719 31.3831 18.488 31.5897 18.3663C31.8013 18.2422 32.0868 18.2803 32.0868 18.2803L35.9358 18.2569C35.9358 18.2569 37.0927 18.1205 37.2793 18.6343C37.4758 19.1713 36.8473 20.4274 35.2747 22.4849C33.7829 24.4371 33.0569 25.1558 33.1235 25.7915C33.1722 26.256 33.6441 26.6761 34.5497 27.5006C36.4401 29.2235 36.9468 30.1299 37.0685 30.3477C37.0786 30.3657 37.0861 30.379 37.0914 30.3877C37.9391 31.7679 36.1511 31.8761 36.1511 31.8761L32.7316 31.9228C32.7316 31.9228 31.9979 32.0654 31.0313 31.414C30.5249 31.073 30.0302 30.5162 29.5589 29.9858C28.8392 29.1758 28.1743 28.4276 27.6068 28.6043C26.654 28.9018 26.6828 30.9162 26.6828 30.9162C26.6828 30.9162 26.6903 31.3476 26.4737 31.5762Z" fill="black"/>
</svg>
