<svg width="48" height="48" viewBox="0 0 48 48" fill="none" xmlns="http://www.w3.org/2000/svg">
<path fill-rule="evenodd" clip-rule="evenodd" d="M23.888 0C10.695 0 0 10.667 0 23.8255C0 36.9839 10.695 47.6509 23.888 47.6509C37.081 47.6509 47.7761 36.9839 47.7761 23.8255C47.7761 10.667 37.081 0 23.888 0ZM33.843 15.6348C34.9394 15.9349 35.8028 16.819 36.0958 17.9418C36.6283 19.9767 36.6283 24.2225 36.6283 24.2225C36.6283 24.2225 36.6283 28.4683 36.0958 30.5033C35.8028 31.6261 34.9394 32.5102 33.843 32.8104C31.8561 33.3556 23.888 33.3556 23.888 33.3556C23.888 33.3556 15.92 33.3556 13.9329 32.8104C12.8366 32.5102 11.9731 31.6261 11.6801 30.5033C11.1477 28.4683 11.1477 24.2225 11.1477 24.2225C11.1477 24.2225 11.1477 19.9767 11.6801 17.9418C11.9731 16.819 12.8366 15.9349 13.9329 15.6348C15.92 15.0895 23.888 15.0895 23.888 15.0895C23.888 15.0895 31.8561 15.0895 33.843 15.6348Z" fill="white"/>
<path d="M21.499 28.5907V20.6489L27.8692 24.62L21.499 28.5907Z" fill="white"/>
</svg>
