<svg width="49" height="48" viewBox="0 0 49 48" fill="none" xmlns="http://www.w3.org/2000/svg">
<path fill-rule="evenodd" clip-rule="evenodd" d="M24.5195 0C11.2647 0 0.519531 10.7452 0.519531 24C0.519531 37.2548 11.2647 48 24.5195 48C37.7744 48 48.5195 37.2548 48.5195 24C48.5195 10.7452 37.7744 0 24.5195 0ZM34.5211 15.7493C35.6227 16.0516 36.4902 16.9422 36.7845 18.0732C37.3195 20.123 37.3195 24.4 37.3195 24.4C37.3195 24.4 37.3195 28.6768 36.7845 30.7268C36.4902 31.8578 35.6227 32.7484 34.5211 33.0508C32.5249 33.6 24.5195 33.6 24.5195 33.6C24.5195 33.6 16.5141 33.6 14.5178 33.0508C13.4163 32.7484 12.5488 31.8578 12.2544 30.7268C11.7195 28.6768 11.7195 24.4 11.7195 24.4C11.7195 24.4 11.7195 20.123 12.2544 18.0732C12.5488 16.9422 13.4163 16.0516 14.5178 15.7493C16.5141 15.2 24.5195 15.2 24.5195 15.2C24.5195 15.2 32.5249 15.2 34.5211 15.7493Z" fill="black"/>
<path d="M22.1196 28.7998V20.7998L28.5196 24.8L22.1196 28.7998Z" fill="black"/>
</svg>
